<svg width="710" height="175" viewBox="0 0 710 175" fill="none" xmlns="http://www.w3.org/2000/svg">
<path d="M31.928 73L16.184 47.752L30.824 25.48H42.104L27.56 47.272L44.552 73H31.928ZM0.344001 73V25.48H10.904V43.816H25.208V52.552H10.904V73H0.344001ZM74.5858 74.44C69.6258 74.44 65.1938 73.304 61.2898 71.032C57.4178 68.728 54.3778 65.672 52.1698 61.864C49.9618 58.024 48.8578 53.816 48.8578 49.24C48.8578 45.848 49.4818 42.648 50.7298 39.64C52.0098 36.6 53.8018 33.912 56.1058 31.576C58.4418 29.24 61.1778 27.4 64.3138 26.056C67.4498 24.712 70.8898 24.04 74.6338 24.04C79.5938 24.04 84.0098 25.192 87.8818 27.496C91.7858 29.768 94.8418 32.824 97.0498 36.664C99.2578 40.472 100.362 44.664 100.362 49.24C100.362 52.6 99.7218 55.8 98.4418 58.84C97.1938 61.88 95.4178 64.568 93.1138 66.904C90.8098 69.24 88.0898 71.08 84.9538 72.424C81.8178 73.768 78.3618 74.44 74.5858 74.44ZM74.5858 65.08C77.5298 65.08 80.1378 64.44 82.4098 63.16C84.7138 61.848 86.5218 60.008 87.8338 57.64C89.1458 55.272 89.8018 52.472 89.8018 49.24C89.8018 46.008 89.1458 43.208 87.8338 40.84C86.5218 38.44 84.7138 36.6 82.4098 35.32C80.1378 34.04 77.5298 33.4 74.5858 33.4C71.6418 33.4 69.0178 34.04 66.7138 35.32C64.4418 36.6 62.6498 38.44 61.3378 40.84C60.0578 43.208 59.4178 46.008 59.4178 49.24C59.4178 52.472 60.0738 55.272 61.3858 57.64C62.6978 60.008 64.4898 61.848 66.7618 63.16C69.0658 64.44 71.6738 65.08 74.5858 65.08ZM133.23 74.44C128.238 74.44 123.79 73.352 119.886 71.176C115.982 68.968 112.91 65.976 110.67 62.2C108.462 58.392 107.358 54.072 107.358 49.24C107.358 45.592 108.014 42.248 109.326 39.208C110.638 36.136 112.494 33.464 114.894 31.192C117.294 28.92 120.11 27.16 123.342 25.912C126.606 24.664 130.142 24.04 133.95 24.04C137.15 24.04 140.11 24.472 142.83 25.336C145.582 26.168 148.11 27.464 150.414 29.224L145.326 37.288C143.854 35.976 142.158 35 140.238 34.36C138.35 33.72 136.334 33.4 134.19 33.4C130.862 33.4 127.998 34.024 125.598 35.272C123.198 36.52 121.326 38.328 119.982 40.696C118.67 43.032 118.014 45.864 118.014 49.192C118.014 54.152 119.454 58.04 122.334 60.856C125.246 63.672 129.198 65.08 134.19 65.08C136.558 65.08 138.798 64.648 140.91 63.784C143.022 62.888 144.782 61.72 146.19 60.28L151.23 68.296C148.702 70.216 145.886 71.72 142.782 72.808C139.678 73.896 136.494 74.44 133.23 74.44ZM160.938 73V25.48H170.106H170.394L191.706 56.296L187.146 56.392L207.402 25.48H216.762V73H207.162L207.306 37.864L209.274 38.728L192.282 63.544H185.466L167.706 38.68L169.674 37.816L169.818 73H160.938ZM253.134 74.44C248.014 74.44 243.518 73.4 239.646 71.32C235.774 69.208 232.75 66.264 230.574 62.488C228.43 58.712 227.358 54.328 227.358 49.336C227.358 45.688 227.982 42.328 229.23 39.256C230.478 36.152 232.238 33.464 234.51 31.192C236.782 28.92 239.438 27.16 242.478 25.912C245.55 24.664 248.894 24.04 252.51 24.04C256.446 24.04 259.95 24.744 263.022 26.152C266.094 27.528 268.638 29.464 270.654 31.96C272.702 34.456 274.142 37.384 274.974 40.744C275.838 44.072 275.982 47.688 275.406 51.592H237.486C237.422 54.44 238.046 56.936 239.358 59.08C240.67 61.192 242.542 62.84 244.974 64.024C247.438 65.208 250.334 65.8 253.662 65.8C256.35 65.8 258.942 65.4 261.438 64.6C263.966 63.768 266.254 62.552 268.302 60.952L272.382 68.536C270.846 69.784 268.99 70.856 266.814 71.752C264.638 72.616 262.366 73.272 259.998 73.72C257.63 74.2 255.342 74.44 253.134 74.44ZM238.11 43.816H265.038C264.942 40.232 263.79 37.416 261.582 35.368C259.406 33.32 256.302 32.296 252.27 32.296C248.366 32.296 245.118 33.32 242.526 35.368C239.966 37.416 238.494 40.232 238.11 43.816ZM296.983 73V34.216H281.383V25.48H323.191V34.216H307.543V73H296.983ZM332.875 73V25.48H343.099V57.544L368.875 25.48H378.091V73H367.915V40.552L341.899 73H332.875ZM420.67 73V54.424C418.43 55 416.302 55.432 414.286 55.72C412.302 56.008 410.206 56.152 407.998 56.152C403.742 56.152 400.158 55.496 397.246 54.184C394.334 52.872 392.142 50.888 390.67 48.232C389.198 45.576 388.462 42.232 388.462 38.2V25.48H399.022V36.712C399.022 40.104 399.838 42.68 401.47 44.44C403.102 46.2 405.886 47.08 409.822 47.08C412.094 47.08 414.078 46.984 415.774 46.792C417.502 46.568 419.134 46.296 420.67 45.976V25.48H431.23V73H420.67ZM467.634 74.44C462.514 74.44 458.018 73.4 454.146 71.32C450.274 69.208 447.25 66.264 445.074 62.488C442.93 58.712 441.858 54.328 441.858 49.336C441.858 45.688 442.482 42.328 443.73 39.256C444.978 36.152 446.738 33.464 449.01 31.192C451.282 28.92 453.938 27.16 456.978 25.912C460.05 24.664 463.394 24.04 467.01 24.04C470.946 24.04 474.45 24.744 477.522 26.152C480.594 27.528 483.138 29.464 485.154 31.96C487.202 34.456 488.642 37.384 489.474 40.744C490.338 44.072 490.482 47.688 489.906 51.592H451.986C451.922 54.44 452.546 56.936 453.858 59.08C455.17 61.192 457.042 62.84 459.474 64.024C461.938 65.208 464.834 65.8 468.162 65.8C470.85 65.8 473.442 65.4 475.938 64.6C478.466 63.768 480.754 62.552 482.802 60.952L486.882 68.536C485.346 69.784 483.49 70.856 481.314 71.752C479.138 72.616 476.866 73.272 474.498 73.72C472.13 74.2 469.842 74.44 467.634 74.44ZM452.61 43.816H479.538C479.442 40.232 478.29 37.416 476.082 35.368C473.906 33.32 470.802 32.296 466.77 32.296C462.866 32.296 459.618 33.32 457.026 35.368C454.466 37.416 452.994 40.232 452.61 43.816ZM523.136 74.44C518.144 74.44 513.696 73.352 509.792 71.176C505.888 68.968 502.816 65.976 500.576 62.2C498.368 58.392 497.264 54.072 497.264 49.24C497.264 45.592 497.92 42.248 499.232 39.208C500.544 36.136 502.4 33.464 504.8 31.192C507.2 28.92 510.016 27.16 513.248 25.912C516.512 24.664 520.048 24.04 523.856 24.04C527.056 24.04 530.016 24.472 532.736 25.336C535.488 26.168 538.016 27.464 540.32 29.224L535.232 37.288C533.76 35.976 532.064 35 530.144 34.36C528.256 33.72 526.24 33.4 524.096 33.4C520.768 33.4 517.904 34.024 515.504 35.272C513.104 36.52 511.232 38.328 509.888 40.696C508.576 43.032 507.92 45.864 507.92 49.192C507.92 54.152 509.36 58.04 512.24 60.856C515.152 63.672 519.104 65.08 524.096 65.08C526.464 65.08 528.704 64.648 530.816 63.784C532.928 62.888 534.688 61.72 536.096 60.28L541.136 68.296C538.608 70.216 535.792 71.72 532.688 72.808C529.584 73.896 526.4 74.44 523.136 74.44ZM582.428 73L566.684 47.752L581.324 25.48H592.604L578.06 47.272L595.052 73H582.428ZM550.844 73V25.48H561.404V43.816H575.708V52.552H561.404V73H550.844ZM604.375 73V25.48H614.599V57.544L640.375 25.48H649.591V73H639.415V40.552L613.399 73H604.375ZM664.282 73V25.48H674.506V57.544L700.282 25.48H709.498V73H699.322V40.552L673.306 73H664.282ZM686.89 17.32C683.338 17.32 680.218 16.584 677.53 15.112C674.842 13.64 672.762 11.608 671.29 9.016C669.818 6.424 669.13 3.448 669.226 0.0879974H678.058C677.93 3.032 678.666 5.416 680.266 7.23999C681.898 9.032 684.106 9.928 686.89 9.928C689.674 9.928 691.866 9.032 693.466 7.23999C695.066 5.416 695.786 3.032 695.626 0.0879974H704.506C704.57 3.416 703.85 6.376 702.346 8.96799C700.874 11.56 698.794 13.608 696.106 15.112C693.45 16.584 690.378 17.32 686.89 17.32ZM0.344001 160V112.48H45.224V160H34.664V121.216H10.904V160H0.344001ZM81.5233 161.44C76.5633 161.44 72.1313 160.304 68.2273 158.032C64.3553 155.728 61.3153 152.672 59.1073 148.864C56.8993 145.024 55.7953 140.816 55.7953 136.24C55.7953 132.848 56.4193 129.648 57.6673 126.64C58.9473 123.6 60.7393 120.912 63.0433 118.576C65.3793 116.24 68.1153 114.4 71.2513 113.056C74.3873 111.712 77.8273 111.04 81.5713 111.04C86.5313 111.04 90.9473 112.192 94.8193 114.496C98.7233 116.768 101.779 119.824 103.987 123.664C106.195 127.472 107.299 131.664 107.299 136.24C107.299 139.6 106.659 142.8 105.379 145.84C104.131 148.88 102.355 151.568 100.051 153.904C97.7473 156.24 95.0273 158.08 91.8913 159.424C88.7553 160.768 85.2993 161.44 81.5233 161.44ZM81.5233 152.08C84.4673 152.08 87.0753 151.44 89.3473 150.16C91.6513 148.848 93.4593 147.008 94.7713 144.64C96.0833 142.272 96.7393 139.472 96.7393 136.24C96.7393 133.008 96.0833 130.208 94.7713 127.84C93.4593 125.44 91.6513 123.6 89.3473 122.32C87.0753 121.04 84.4673 120.4 81.5233 120.4C78.5793 120.4 75.9553 121.04 73.6513 122.32C71.3793 123.6 69.5873 125.44 68.2753 127.84C66.9953 130.208 66.3553 133.008 66.3553 136.24C66.3553 139.472 67.0113 142.272 68.3233 144.64C69.6353 147.008 71.4273 148.848 73.6993 150.16C76.0033 151.44 78.6113 152.08 81.5233 152.08ZM117.907 160V112.48H127.075H127.363L148.675 143.296L144.115 143.392L164.371 112.48H173.731V160H164.131L164.275 124.864L166.243 125.728L149.251 150.544H142.435L124.674 125.68L126.643 124.816L126.787 160H117.907ZM210.055 161.44C205.095 161.44 200.663 160.304 196.759 158.032C192.887 155.728 189.847 152.672 187.639 148.864C185.431 145.024 184.327 140.816 184.327 136.24C184.327 132.848 184.951 129.648 186.199 126.64C187.479 123.6 189.271 120.912 191.575 118.576C193.911 116.24 196.647 114.4 199.783 113.056C202.919 111.712 206.359 111.04 210.103 111.04C215.063 111.04 219.479 112.192 223.351 114.496C227.255 116.768 230.311 119.824 232.519 123.664C234.727 127.472 235.831 131.664 235.831 136.24C235.831 139.6 235.191 142.8 233.911 145.84C232.663 148.88 230.887 151.568 228.583 153.904C226.279 156.24 223.559 158.08 220.423 159.424C217.287 160.768 213.831 161.44 210.055 161.44ZM210.055 152.08C212.999 152.08 215.607 151.44 217.879 150.16C220.183 148.848 221.991 147.008 223.303 144.64C224.615 142.272 225.271 139.472 225.271 136.24C225.271 133.008 224.615 130.208 223.303 127.84C221.991 125.44 220.183 123.6 217.879 122.32C215.607 121.04 212.999 120.4 210.055 120.4C207.111 120.4 204.487 121.04 202.183 122.32C199.911 123.6 198.119 125.44 196.807 127.84C195.527 130.208 194.887 133.008 194.887 136.24C194.887 139.472 195.543 142.272 196.855 144.64C198.167 147.008 199.959 148.848 202.231 150.16C204.535 151.44 207.143 152.08 210.055 152.08ZM319.734 174.4V160H311.958V151.264H329.43V174.4H319.734ZM246.438 160V112.48H256.662V151.264H276.726V112.48H286.95V151.264H307.014V112.48H317.238V160H246.438ZM338.782 160V112.48H349.342V130.816H373.15V112.48H383.71V160H373.15V139.552H349.342V160H338.782ZM398.407 160V112.48H408.631V144.544L434.407 112.48H443.623V160H433.447V127.552L407.431 160H398.407ZM489.897 160L474.153 134.752L488.793 112.48H500.073L485.529 134.272L502.521 160H489.897ZM458.313 160V112.48H468.873V130.816H483.177V139.552H468.873V160H458.313Z" fill="black"/>
</svg>
